# AST/ASF file generated using VICON BodyLanguage
# -----------------------------------------------
:version 1.10
:name VICON
:units
  mass 1.0
  length 0.45
  angle deg
:documentation
   .ast/.asf automatically generated from VICON data using
   VICON BodyBuilder and BodyLanguage model FoxedUp or BRILLIANT.MOD
:root
   order TX TY TZ RX RY RZ
   axis XYZ
   position 0 0 0  
   orientation 0 -0 0 
:bonedata
  begin
     id 1 
     name lhipjoint
     direction 0.515797 -0.759363 0.396637 
     length 2.47888 
     axis 0 -0 0  XYZ
  end
  begin
     id 2 
     name lfemur
     direction 0.34202 -0.939693 0  
     length 6.81885  
     axis 0 -0 20  XYZ
    dof rx ry rz
    limits (-160.0 20.0)
           (-70.0 70.0)
           (-60.0 70.0)
  end
  begin
     id 3 
     name ltibia
     direction 0.342037 -0.939687 0   
     length 7.89258   
     axis 0 -0 20   XYZ
    dof rx
    limits (-10.0 170.0)
  end
  begin
     id 4 
     name lfoot
     direction 0.173497 -0.476678 0.861787   
     length 2.51543   
     axis -90 -1.13533e-015 20   XYZ
    dof rx rz
    limits (-45.0 90.0)
           (-70.0 20.0)
  end
  begin
     id 5 
     name ltoes
     direction 1.53564e-011 -4.21897e-011 1   
     length 1.21388   
     axis -90 -1.13533e-015 20   XYZ
    dof rx
    limits (-90.0 20.0)
  end
  begin
     id 6 
     name rhipjoint
     direction -0.489454 -0.772941 0.403729   
     length 2.43534  
     axis 0 -0 0  XYZ 
  end
  begin
     id 7 
     name rfemur
     direction -0.34202 -0.939693 0   
     length 7.10357   
     axis 0 -0 -20   XYZ
    dof rx ry rz
    limits (-160.0 20.0)
           (-70.0 70.0)
           (-70.0 60.0)
  end
  begin
     id 8 
     name rtibia
     direction -0.34202 -0.939693 0   
     length 9.16127   
     axis 0 -0 -20   XYZ
    dof rx
    limits (-10.0 170.0)
 end
 begin
     id 9 
     name rfoot
     direction -0.270974 -0.748671 0.605033   
     length 1.74894  
     axis -90 1.13533e-015 -20   XYZ
    dof rx rz
    limits (-45.0 90.0)
           (-20.0 70.0)
  end
  begin
     id 10 
     name rtoes
     direction -1.53557e-011 -4.21759e-011 1   
     length 0.787585   
     axis -90 1.13533e-015 -20   XYZ
    dof rx
    limits (-90.0 20.0)
  end
  begin
     id 11 
     name lowerback
     direction -0.0140249 0.999561 0.0260968   
     length 2.16963   
     axis 0 -0 0   XYZ
    dof rx ry rz
    limits (-20.0 45.0)
           (-30.0 30.0)
           (-30.0 30.0)
  end
  begin
     id 12 
     name upperback
     direction 0.00860018 0.999959 -0.002711   
     length 2.1726   
     axis 0 -0 0   XYZ
    dof rx ry rz
    limits (-20.0 45.0)
           (-30.0 30.0)
           (-30.0 30.0)
  end
  begin
     id 13 
     name thorax
     direction 0.015211 0.999782 -0.0143191   
     length 2.17061   
     axis 0 -0 0   XYZ
    dof rx ry rz
    limits (-20.0 45.0)
           (-30.0 30.0)
           (-30.0 30.0)
  end
  begin
     id 14 
     name lowerneck
     direction -0.0140143 0.999447 0.030145   
     length 2.26749   
     axis 0 -0 0   XYZ
    dof rx ry rz
    limits (-20.0 45.0)
           (-30.0 30.0)
           (-30.0 30.0)
  end
  begin
     id 15 
     name upperneck
     direction 0.118062 0.961438 -0.248392   
     length 2.22728   
     axis 0 -0 0   XYZ
    dof rx ry rz
    limits (-20.0 45.0)
           (-30.0 30.0)
           (-30.0 30.0)
  end
  begin
     id 16
     name head
     direction 0.0431885 0.9954 -0.085514  
     length 2.28786  
     axis 0 -0 0   XYZ
    dof rx ry rz
    limits (-20.0 45.0)
           (-30.0 30.0)
           (-30.0 30.0)
  end
  begin
     id 17 
     name lclavicle
     direction 0.912126 0.409548 0.0172323  
     length 4.31571  
     axis 0 -0 0   XYZ
    dof ry rz
    limits (-20.0 10.0)
           (0.0 20.0)
  end
  begin
     id 18 
     name lhumerus
     direction 1 -4.48977e-011 1.93091e-027   
     length 5.13658   
     axis 180 -30 -90   XYZ
    dof rx ry rz
    limits (-60.0 90.0)
           (-90.0 90.0)
           (-90.0 90.0)
  end
  begin
     id 19
     name lradius
     direction 1 -4.48916e-011 6.84018e-027   
     length 3.22473   
     axis 180 -30 -90   XYZ
    dof rx
    limits (-10.0 170.0)
  end
  begin
     id 20
     name lwrist
     direction 1 -4.48987e-011 7.01981e-027   
     length 1.61236   
     axis -4.37994e-015 90 90   XYZ
    dof ry
    limits (-180.0 0.0)
 end
  begin
     id 21 
     name lhand
     direction 1 -4.49037e-011 1.40335e-026   
     length 0.936406   
     axis -8.96029e-015 90 90   XYZ
    dof rx rz
    limits (-90.0 90.0)
           (-45.0 45.0)
  end
  begin
     id 22 
     name lfingers
     direction 1 -4.48886e-011 2.8104e-026   
     length 0.754955   
     axis -1.79203e-014 90 90   XYZ
    dof rx
    limits (0.0 90.0)
  end
  begin
     id 23
     name lthumb
     direction 0.707107 -6.34937e-011 0.707107   
     length 1.08397   
     axis -90 45 -4.48555e-014   XYZ
    dof rx rz
    limits (-45.0 45.0)
           (-45.0 45.0)
  end
  begin
     id 24 
     name rclavicle
     direction -0.947962 0.317997 0.0156638   
     length 4.86918  
     axis 0 -0 0   XYZ 
    dof ry rz
    limits (-10.0 20.0)
           (-20.0 0.0)
  end
  begin
     id 25 
     name rhumerus
     direction -1 -4.48951e-011 2.80534e-018  
     length 5.60911   
     axis 180 30 90   XYZ
    dof rx ry rz
    limits (-90.0 60.0)
           (-90.0 90.0)
           (-90.0 90.0)
  end
  begin
     id 26 
     name rradius
     direction -1 -4.4898e-011 2.11315e-027   
     length 3.38704   
     axis 180 30 90   XYZ
    dof rx
    limits (-10.0 170.0)
  end
  begin
     id 27 
     name rwrist
     direction -1 -4.48933e-011 7.02314e-027   
     length 1.69352   
     axis -4.37994e-015 -90 -90   XYZ
    dof ry
    limits (-180.0 0.0)
  end
  begin
     id 28
     name rhand
     direction -1 -4.48937e-011 1.40458e-026   
     length 0.755878   
     axis -8.96029e-015 -90 -90   XYZ
    dof rx rz
    limits (-90.0 90.0)
           (-45.0 45.0)
  end
  begin
     id 29
     name rfingers
     direction -1 -4.4901e-011 2.80737e-026   
     length 0.609409   
     axis -1.79203e-014 -90 -90   XYZ
    dof rx
    limits (0.0 90.0)
  end
  begin
     id 30
     name rthumb
     direction -0.707107 -6.34968e-011 0.707107   
     length 0.874992   
     axis -90 -45 4.48555e-014   XYZ
    dof rx rz
    limits (-45.0 45.0)
           (-45.0 45.0)
  end
:hierarchy
  begin
    root lhipjoint rhipjoint lowerback
    lhipjoint lfemur
    lfemur ltibia
    ltibia lfoot
    lfoot ltoes
    rhipjoint rfemur
    rfemur rtibia
    rtibia rfoot
    rfoot rtoes
    lowerback upperback
    upperback thorax
    thorax lowerneck lclavicle rclavicle
    lowerneck upperneck
    upperneck head
    lclavicle lhumerus
    lhumerus lradius
    lradius lwrist
    lwrist lhand lthumb
    lhand lfingers
    rclavicle rhumerus
    rhumerus rradius
    rradius rwrist
    rwrist rhand rthumb
    rhand rfingers
  end

#!OML:ASF C:\ViconDB\ViconDB\414\Spring2016\041811\Spring2016.ASF
:FULLY-SPECIFIED
:DEGREES
92
root 9.52628 18.0891 0.0992682 -177.954 -5.06588 -179.627
lowerback 2.03025 0.999367 -3.50102
upperback 0.934352 1.25394 0.719225
thorax -0.270782 0.610998 2.67237
lowerneck -11.2775 1.79442 -3.43738
upperneck 19.6083 0.324654 9.79343
head 7.85946 0.520196 3.82413
rclavicle 2.69074e-014 4.96962e-016
rhumerus -40.7905 -21.7841 -79.4043
rradius 32.0591
rwrist 45.2642
rhand -35.8618 -13.8535
rfingers 7.12502
rthumb -8.97645 -43.6425
lclavicle 2.69074e-014 4.96962e-016
lhumerus -37.995 -14.1133 98.4377
lradius 36.763
lwrist -24.2967
lhand -26.1666 14.452
lfingers 7.12502
lthumb 0.384835 44.4313
rfemur 207.6 55.2921 -133.825
rtibia 27.5366
rfoot -70.3611 -49.341
rtoes -6.14245e-014
lfemur 9.64404 -9.1431 -23.3932
ltibia 7.06671
lfoot -19.5069 4.57281
ltoes -1.05903e-013
93
root 9.53705 18.0694 0.00790007 -177.95 -5.17094 -179.718
lowerback 2.01852 0.949751 -3.40216
upperback 0.901847 1.19043 0.709587
thorax -0.290836 0.580675 2.6084
lowerneck -11.2161 1.72621 -3.62499
upperneck 19.5174 0.266409 9.8579
head 7.82054 0.48431 3.86908
rclavicle -2.20527e-014 -1.14053e-014
rhumerus -40.9565 -21.6977 -79.3569
rradius 32.0865
rwrist 45.2708
rhand -35.8527 -13.7499
rfingers 7.12502
rthumb -8.96768 -43.5393
lclavicle -2.20527e-014 -1.14053e-014
lhumerus -38.147 -14.2989 98.5125
lradius 37.1666
lwrist -23.8379
lhand -26.3108 14.3355
lfingers 7.12502
lthumb 0.245596 44.3151
rfemur 207.29 55.129 -134.286
rtibia 27.6035
rfoot -69.5282 -49.267
rtoes 1.0138e-013
lfemur 10.3332 -9.1768 -23.4612
ltibia 6.37674
lfoot -19.4307 4.49582
ltoes -9.39258e-015
94
root 9.55057 18.0505 -0.084139 -177.977 -5.31933 -179.8
lowerback 1.98238 0.923136 -3.36611
upperback 0.924989 1.15697 0.734247
thorax -0.244311 0.56268 2.61517
lowerneck -11.278 1.61386 -3.698
upperneck 19.4828 0.144583 9.82242
head 7.82952 0.422259 3.85856
rclavicle -7.6866e-015 -9.00743e-015
rhumerus -41.0607 -21.5854 -79.3325
rradius 32.1909
rwrist 45.0267
rhand -35.7963 -13.7118
rfingers 7.12502
rthumb -8.91323 -43.5035
lclavicle -7.6866e-015 -9.00743e-015
lhumerus -38.1401 -14.2825 98.5508
lradius 37.3816
lwrist -23.6766
lhand -26.3641 14.269
lfingers 7.12502
lthumb 0.194126 44.2486
rfemur 206.074 54.5145 -135.723
rtibia 27.6872
rfoot -67.5775 -49.7091
rtoes 1.98785e-014
lfemur 11.0584 -9.25387 -23.5089
ltibia 5.67642
lfoot -19.3528 4.41375
ltoes 7.15625e-014
95
root 9.56381 18.0286 -0.179701 -178.004 -5.41982 -179.833
lowerback 1.97307 0.886532 -3.27656
upperback 0.913586 1.11037 0.762294
thorax -0.246437 0.539884 2.59487
lowerneck -11.3693 1.50986 -3.80558
upperneck 19.5642 0.00835126 9.84858
head 7.88271 0.354107 3.87638
rclavicle 1.27346e-015 -4.12478e-015
rhumerus -41.1547 -21.4438 -79.3701
rradius 32.1996
rwrist 44.748
rhand -35.9118 -13.9177
rfingers 7.12502
rthumb -9.02467 -43.7047
lclavicle 1.27346e-015 -4.12478e-015
lhumerus -38.4171 -14.4474 98.6739
lradius 37.9211
lwrist -23.4028
lhand -26.56 14.527
lfingers 7.12502
lthumb 0.00489736 44.5068
rfemur 204.603 53.7223 -137.345
rtibia 27.7961
rfoot -65.3449 -50.0683
rtoes -1.89044e-013
lfemur 11.7388 -9.27879 -23.5294
ltibia 5.0787
lfoot -19.2955 4.44512
ltoes -1.4064e-014
96
root 9.57986 18.0075 -0.276662 -178.028 -5.59013 -179.855
lowerback 2.01484 0.817003 -3.15834
upperback 0.870739 1.01874 0.773363
thorax -0.305663 0.496227 2.54107
lowerneck -11.2059 1.32969 -4.15667
upperneck 19.4118 -0.235618 10.1638
head 7.81872 0.233002 4.01273
rclavicle -1.16864e-014 -6.70898e-016
rhumerus -41.3708 -21.3183 -79.3836
rradius 32.3801
rwrist 44.6848
rhand -35.7042 -13.6617
rfingers 7.12502
rthumb -8.82435 -43.4572
lclavicle -1.16864e-014 -6.70898e-016
lhumerus -38.5614 -14.3754 98.6915
lradius 38.1788
lwrist -23.3867
lhand -26.6944 14.8992
lfingers 7.12502
lthumb -0.124945 44.8789
rfemur 203.068 52.8533 -139.034
rtibia 27.9408
rfoot -63.1239 -50.2772
rtoes 8.72665e-014
lfemur 12.4891 -9.38032 -23.4935
ltibia 4.3248
lfoot -19.1595 4.3987
ltoes -4.47266e-014
97
root 9.5959 17.9874 -0.377933 -178.032 -5.80126 -179.977
lowerback 1.97176 0.750589 -3.1697
upperback 0.877129 0.931667 0.817045
thorax -0.269971 0.451932 2.59515
lowerneck -11.2083 1.16538 -4.42203
upperneck 19.347 -0.419205 10.2551
head 7.81141 0.136332 4.07026
rclavicle 1.3977e-015 2.13694e-015
rhumerus -41.4351 -21.1618 -79.4031
rradius 32.3888
rwrist 44.3417
rhand -35.9627 -13.9842
rfingers 7.12502
rthumb -9.07383 -43.769
lclavicle 1.3977e-015 2.13694e-015
lhumerus -38.518 -14.1928 98.7509
lradius 38.2331
lwrist -23.4944
lhand -26.8117 14.7798
lfingers 7.12502
lthumb -0.238224 44.7594
rfemur 201.349 51.8781 -141.011
rtibia 28.1179
rfoot -60.4781 -50.5961
rtoes 6.36111e-015
lfemur 13.2423 -9.51648 -23.6178
ltibia 3.57854
lfoot -18.9694 4.54536
ltoes -1.03666e-013
98
root 9.61641 17.9644 -0.48565 -178.094 -6.02209 -180.036
lowerback 1.93613 0.668527 -3.10657
upperback 0.885821 0.824558 0.817863
thorax -0.232921 0.397723 2.56351
lowerneck -11.2487 0.982751 -4.46601
upperneck 19.4012 -0.670759 10.2361
head 7.85768 0.0110996 4.04908
rclavicle 6.29278e-015 2.73329e-015
rhumerus -41.5909 -21.0434 -79.4397
rradius 32.5266
rwrist 44.4251
rhand -35.7563 -13.8544
rfingers 7.12502
rthumb -8.87467 -43.6478
lclavicle 6.29278e-015 2.73329e-015
lhumerus -38.4619 -14.0022 98.6882
lradius 38.1949
lwrist -23.6237
lhand -26.8868 14.7027
lfingers 7.12502
lthumb -0.310757 44.6822
rfemur 199.43 50.8283 -143.022
rtibia 28.3097
rfoot -57.7575 -50.9141
rtoes -9.54166e-015
lfemur 14.149 -9.66715 -23.629
ltibia 2.73109
lfoot -18.7752 4.50455
ltoes 4.8901e-014
99
root 9.63958 17.9391 -0.596445 -178.128 -6.34131 -180.026
lowerback 1.87498 0.565832 -3.03301
upperback 0.87777 0.691192 0.866974
thorax -0.19769 0.33077 2.57624
lowerneck -11.1804 0.750618 -4.68871
upperneck 19.3135 -0.987161 10.4137
head 7.8429 -0.144139 4.11366
rclavicle -6.98231e-015 6.85807e-015
rhumerus -41.7556 -21.0741 -79.4087
rradius 32.6333
rwrist 44.2522
rhand -35.6096 -13.6098
rfingers 7.12502
rthumb -8.73311 -43.4091
lclavicle -6.98231e-015 6.85807e-015
lhumerus -38.4351 -13.8454 98.6883
lradius 38.1114
lwrist -23.762
lhand -27.0449 14.5919
lfingers 7.12502
lthumb -0.463427 44.5711
rfemur 197.787 50.0345 -144.608
rtibia 28.522
rfoot -55.5585 -51.1199
rtoes 3.61788e-014
lfemur 15.0497 -9.91627 -23.5667
ltibia 1.83394
lfoot -18.5215 4.50585
ltoes -2.96189e-014
100
root 9.66386 17.9154 -0.705978 -178.189 -6.63528 -179.996
lowerback 1.87767 0.473703 -2.91454
upperback 0.861734 0.570281 0.944147
thorax -0.207207 0.270777 2.5915
lowerneck -11.2679 0.550902 -4.91949
upperneck 19.4255 -1.25804 10.5183
head 7.91958 -0.279887 4.16626
rclavicle 9.17515e-015 -3.57812e-015
rhumerus -41.9449 -20.9237 -79.426
rradius 32.7683
rwrist 44.0604
rhand -35.7101 -13.812
rfingers 7.12502
rthumb -8.83001 -43.6072
lclavicle 9.17515e-015 -3.57812e-015
lhumerus -38.449 -13.7461 98.7319
lradius 38.0133
lwrist -23.9889
lhand -27.0795 14.5388
lfingers 7.12502
lthumb -0.496915 44.518
rfemur 195.897 48.9037 -146.421
rtibia 28.7432
rfoot -52.7835 -51.4056
rtoes -4.13472e-014
lfemur 16.2675 -10.1427 -23.4726
ltibia 0.349764
lfoot -17.9545 4.51388
ltoes -1.50679e-013
101
root 9.68653 17.8903 -0.815712 -178.132 -6.84422 -180.056
lowerback 1.85397 0.388153 -2.86342
upperback 0.765414 0.459067 0.953606
thorax -0.284977 0.218654 2.57465
lowerneck -11.0233 0.274954 -5.27392
upperneck 19.2586 -1.63883 10.8065
head 7.85541 -0.473743 4.2809
rclavicle -3.85145e-016 5.06901e-015
rhumerus -42.2179 -20.887 -79.4471
rradius 32.9002
rwrist 44.0044
rhand -35.66 -13.7482
rfingers 7.12502
rthumb -8.78167 -43.5455
lclavicle -3.85145e-016 5.06901e-015
lhumerus -38.5373 -13.6427 98.6836
lradius 37.9603
lwrist -24.0793
lhand -26.9797 14.4863
lfingers 7.12502
lthumb -0.400448 44.4657
rfemur 194.368 47.8137 -147.981
rtibia 28.9023
rfoot -50.1957 -51.6651
rtoes -1.35174e-014
lfemur 16.2608 -10.3015 -23.4028
ltibia 0.94021
lfoot -18.393 4.19415
ltoes 1.13307e-014
102
root 9.71012 17.8636 -0.930971 -178.132 -7.02448 -180.113
lowerback 1.75371 0.310571 -2.78904
upperback 0.750148 0.360113 0.964972
thorax -0.237585 0.168954 2.54704
lowerneck -10.9693 -0.0373491 -5.65314
upperneck 19.2189 -2.05027 11.0113
head 7.87344 -0.68326 4.37427
rclavicle 1.16538e-014 -2.08724e-015
rhumerus -42.357 -20.8172 -79.4917
rradius 32.9719
rwrist 43.7053
rhand -35.6369 -13.7302
rfingers 7.12502
rthumb -8.75939 -43.5284
lclavicle 1.16538e-014 -2.08724e-015
lhumerus -38.5406 -13.6035 98.7231
lradius 37.8389
lwrist -24.0892
lhand -27.0106 14.4463
lfingers 7.12502
lthumb -0.430373 44.4256
rfemur 193.062 47.0343 -149.218
rtibia 29.0211
rfoot -48.4136 -51.9273
rtoes 4.01545e-014
lfemur 16.1619 -10.4194 -23.383
ltibia 1.86598
lfoot -18.9115 4.01487
ltoes -6.20208e-014
